<svg height="512pt" viewBox="0 0 512 512" width="512pt" xmlns="http://www.w3.org/2000/svg"><path d="m464 512h-416c-26.476562 0-48-21.546875-48-48v-416c0-26.453125 21.523438-48 48-48h416c26.476562 0 48 21.546875 48 48v416c0 26.453125-21.523438 48-48 48zm-416-480c-8.832031 0-16 7.1875-16 16v416c0 8.8125 7.167969 16 16 16h416c8.832031 0 16-7.1875 16-16v-416c0-8.8125-7.167969-16-16-16zm0 0"/><path d="m496 272h-480c-8.832031 0-16-7.167969-16-16s7.167969-16 16-16h480c8.832031 0 16 7.167969 16 16s-7.167969 16-16 16zm0 0"/><path d="m256 512c-8.832031 0-16-7.167969-16-16v-480c0-8.832031 7.167969-16 16-16s16 7.167969 16 16v480c0 8.832031-7.167969 16-16 16zm0 0"/></svg>