<svg id="Capa_1" enable-background="new 0 0 512 512" height="512" viewBox="0 0 512 512" width="512" xmlns="http://www.w3.org/2000/svg"><g id="XMLID_52_"><path id="XMLID_1995_" d="m293.984 349.108h-75.969c-8.304 0-15.036 6.732-15.036 15.036v57.595c0 8.304 6.732 15.036 15.036 15.036h75.969c8.304 0 15.036-6.732 15.036-15.036v-57.595c0-8.304-6.732-15.036-15.036-15.036z" fill="#07485e"/><g id="XMLID_2000_"><path id="XMLID_2001_" d="m15.036 87.252h481.929v276.892h-481.929z" fill="#90dffa"/></g><g id="XMLID_88_"><path id="XMLID_2003_" d="m293.984 349.108h-37.984v87.667h37.984c8.304 0 15.036-6.732 15.036-15.036v-57.595c0-8.304-6.732-15.036-15.036-15.036z" fill="#04303e"/></g><g><path id="XMLID_2007_" d="m256 87.252h240.965v276.892h-240.965z" fill="#60d1f7"/></g><g id="XMLID_1996_"><path id="XMLID_1997_" d="m349.584 439.784h-187.168c-8.304 0-15.036-6.732-15.036-15.036s6.732-15.036 15.036-15.036h187.168c8.304 0 15.036 6.732 15.036 15.036s-6.732 15.036-15.036 15.036z" fill="#09607d"/></g><path id="XMLID_1998_" d="m496.964 379.18h-481.928c-8.304 0-15.036-6.732-15.036-15.036v-276.892c0-8.304 6.732-15.036 15.036-15.036h481.928c8.304 0 15.036 6.732 15.036 15.036v276.892c0 8.304-6.732 15.036-15.036 15.036zm-466.892-30.072h451.856v-246.82h-451.856z" fill="#09607d"/><g id="XMLID_75_"><path id="XMLID_2006_" d="m349.584 409.712h-93.584v30.072h93.584c8.304 0 15.036-6.732 15.036-15.036s-6.732-15.036-15.036-15.036z" fill="#07485e"/></g><path id="XMLID_2008_" d="m496.964 72.216h-240.964v30.072h225.928v246.82h-225.928v30.072h240.964c8.304 0 15.036-6.732 15.036-15.036v-276.892c0-8.304-6.732-15.036-15.036-15.036z" fill="#07485e"/></g></svg>