<?xml version="1.0" encoding="iso-8859-1"?>
<!-- Generator: Adobe Illustrator 19.0.0, SVG Export Plug-In . SVG Version: 6.00 Build 0)  -->
<svg version="1.1" id="Capa_1" xmlns="http://www.w3.org/2000/svg" xmlns:xlink="http://www.w3.org/1999/xlink" x="0px" y="0px"
	 viewBox="0 0 423.253 423.253" style="enable-background:new 0 0 423.253 423.253;" xml:space="preserve">
<g>
	<g>
		<path d="M416.427,81.92H6.827C3.053,81.92,0,84.973,0,88.747V307.2c0,3.773,3.053,6.827,6.827,6.827h409.6
			c3.773,0,6.827-3.053,6.827-6.827V88.747C423.253,84.973,420.2,81.92,416.427,81.92z M409.6,300.373H13.653v-204.8H409.6V300.373z
			"/>
	</g>
</g>
<g>
	<g>
		<path d="M403.193,47.787H20.06C8.999,47.787,0,56.786,0,67.847v20.9c0,3.773,3.053,6.827,6.827,6.827h409.6
			c3.773,0,6.827-3.053,6.827-6.827v-20.9C423.253,56.786,414.254,47.787,403.193,47.787z M409.6,81.92H13.653V67.847
			c0-3.533,2.874-6.407,6.407-6.407h383.133c3.533,0,6.407,2.874,6.407,6.407V81.92z"/>
	</g>
</g>
<g>
	<g>
		<path d="M416.427,300.373H6.827C3.053,300.373,0,303.427,0,307.2v20.9c0,11.061,8.999,20.06,20.06,20.06h383.133
			c11.061,0,20.06-8.999,20.06-20.06v-20.9C423.253,303.427,420.2,300.373,416.427,300.373z M409.6,328.1
			c0,3.533-2.874,6.407-6.407,6.407H20.06c-3.533,0-6.407-2.874-6.407-6.407v-14.073H409.6V328.1z"/>
	</g>
</g>
<g>
	<g>
		<path d="M259.413,334.507H163.84c-3.773,0-6.827,3.053-6.827,6.827v27.307c0,3.773,3.053,6.827,6.827,6.827h95.573
			c3.773,0,6.827-3.053,6.827-6.827v-27.307C266.24,337.56,263.187,334.507,259.413,334.507z M252.587,361.813h-81.92V348.16h81.92
			V361.813z"/>
	</g>
</g>
<g>
	<g>
		<path d="M293.547,361.813h-163.84c-3.773,0-6.827,3.053-6.827,6.827s3.053,6.827,6.827,6.827h163.84
			c3.773,0,6.827-3.053,6.827-6.827S297.32,361.813,293.547,361.813z"/>
	</g>
</g>
<g>
	<g>
		<path d="M52.613,104.4c-2.666-2.666-6.987-2.666-9.653,0l-20.48,20.48c-2.666,2.666-2.666,6.987,0,9.653
			c1.333,1.333,3.081,2,4.826,2s3.494-0.667,4.826-2l20.48-20.48C55.279,111.387,55.279,107.066,52.613,104.4z"/>
	</g>
</g>
<g>
	<g>
		<path d="M79.92,104.4c-2.666-2.666-6.987-2.666-9.653,0l-44.373,44.373c-2.666,2.666-2.666,6.987,0,9.653
			c1.333,1.333,3.081,2,4.826,2c1.746,0,3.494-0.667,4.826-2l44.373-44.373C82.586,111.387,82.586,107.066,79.92,104.4z"/>
	</g>
</g>
<g>
</g>
<g>
</g>
<g>
</g>
<g>
</g>
<g>
</g>
<g>
</g>
<g>
</g>
<g>
</g>
<g>
</g>
<g>
</g>
<g>
</g>
<g>
</g>
<g>
</g>
<g>
</g>
<g>
</g>
</svg>
