<svg id="Capa_1" enable-background="new 0 0 511.996 511.996" height="512" viewBox="0 0 511.996 511.996" width="512" xmlns="http://www.w3.org/2000/svg"><g><path d="m30.701 410.043v52.574c0 15.938 12.966 28.904 28.903 28.904h8.148c.856 11.433 10.426 20.475 22.073 20.475h59.375c12.21 0 22.144-9.933 22.144-22.143v-80.849c0-4.142-3.357-7.5-7.5-7.5s-7.5 3.358-7.5 7.5v80.849c0 3.938-3.205 7.143-7.144 7.143h-59.374c-3.938 0-7.143-3.204-7.143-7.143 0-9.5 0-187.204 0-196.697 0-3.938 3.204-7.143 7.143-7.143h59.375c3.938 0 7.144 3.205 7.144 7.143v80.849c0 4.142 3.357 7.5 7.5 7.5s7.5-3.358 7.5-7.5v-80.849c0-12.21-9.934-22.143-22.144-22.143h-59.375c-11.647 0-21.217 9.042-22.073 20.475h-8.148c-5.037 0-9.775 1.298-13.903 3.573v-37.18c0-57.653 23.971-113.277 65.962-153.545 10.269 5.488 22.913 4.767 32.71-2.354 66.382-48.257 156.403-48.594 223.251 0 10.093 7.337 23.129 7.837 33.458 1.942 41.516 39.645 65.212 94.719 65.212 152.073v39.064c-4.128-2.275-8.866-3.573-13.903-3.573h-8.147c-.856-11.433-10.426-20.475-22.074-20.475h-12.188c-4.143 0-7.5 3.358-7.5 7.5s3.357 7.5 7.5 7.5h12.188c3.938 0 7.144 3.205 7.144 7.143v196.697c0 3.938-3.205 7.143-7.144 7.143h-59.375c-3.938 0-7.144-3.204-7.144-7.143v-196.697c0-3.938 3.205-7.143 7.144-7.143h12.188c4.143 0 7.5-3.358 7.5-7.5s-3.357-7.5-7.5-7.5h-12.188c-12.21 0-22.144 9.933-22.144 22.143v196.697c0 12.209 9.934 22.143 22.144 22.143h59.375c11.648 0 21.218-9.042 22.074-20.475h8.147c15.938 0 28.903-12.966 28.903-28.904v-52.574c17.485-3.495 30.701-18.96 30.701-37.458 0-13.466 0-102.873 0-116.589 0-142.236-115.406-255.996-255.998-255.996-140.476 0-255.998 113.561-255.998 255.997v116.589c0 18.497 13.216 33.962 30.701 37.457zm435.594 52.574c0 7.667-6.237 13.904-13.903 13.904h-8.078v-170.033h8.078c7.666 0 13.903 6.237 13.903 13.904zm-406.691-156.129h8.079v170.033h-8.079c-7.666 0-13.903-6.237-13.903-13.904 0-6.665 0-135.289 0-142.225 0-7.666 6.237-13.904 13.903-13.904zm437.392 66.098c0 10.169-6.577 18.832-15.701 21.958v-48.756h15.701zm0-116.589v74.79h-15.701c0-7.526 0-65.537 0-74.79 0-60.971-24.981-119.535-68.807-161.925l11.18-11.18c45.773 44.192 73.328 105.596 73.328 173.105zm-240.998-240.997c57.715 0 113.006 20.464 156.568 57.78-18.451 18.452-14.796 14.799-16.091 16.04-5.568 5.04-13.86 5.517-20.031 1.029-71.632-52.071-168.762-52.434-240.892 0-6.425 4.671-15.108 3.954-20.624-1.571l-15.498-15.498c43.562-37.317 98.853-57.78 156.568-57.78zm-240.998 240.997c0-67.778 27.746-129.074 73.329-173.105l11.763 11.762c-44.194 42.994-69.39 102.037-69.39 163.227v72.906h-15.702zm0 89.79h15.701v48.756c-9.124-3.125-15.701-11.788-15.701-21.957z"/></g></svg>