<svg height="512pt" viewBox="-43 0 512 512" width="512pt" xmlns="http://www.w3.org/2000/svg"><path d="m353.960938 211.542969-74.75 190.632812-31.828126-12.457031c-1.214843-.421875-2.339843-1.058594-3.328124-1.878906-6.640626-4.386719-9.28125-12.839844-6.316407-20.222656l65.449219-166.828126c3.488281-8.765624 13.398438-13.074218 22.1875-9.640624l3.160156 1.277343 20.648438 8.109375c2.101562.8125 3.792968 2.433594 4.691406 4.503906.898438 2.066407.929688 4.410157.085938 6.503907zm0 0" fill="#354aa3"/><path d="m330.753906 201.898438-74.839844 190.636718-11.859374-4.695312c-6.640626-4.386719-9.28125-12.839844-6.316407-20.222656l65.449219-166.828126c3.488281-8.765624 13.398438-13.074218 22.1875-9.640624l3.160156 1.277343c2.609375 2.402344 3.492188 6.160157 2.21875 9.472657zm0 0" fill="#5068c1"/><path d="m317.191406 398.789062-31.777344-12.46875 65.460938-166.816406 31.773438 12.46875zm0 0" fill="#728f9c"/><path d="m77.496094 200.484375 23.832031-9.351563c8.773437-3.441406 18.675781.878907 22.121094 9.652344l65.457031 166.816406c3.445312 8.777344-.878906 18.679688-9.652344 22.121094l-31.773437 12.46875-74.8125-190.644531c-1.71875-4.390625.441406-9.339844 4.828125-11.0625zm0 0" fill="#5068c1"/><path d="m44.015625 231.980469 31.773437-12.46875 65.457032 166.816406-31.773438 12.46875zm0 0" fill="#728f9c"/><path d="m213.332031 8.535156c-110.933593 0-204.796875 85.332032-204.796875 196.265625v11.808594c-.003906 11.085937 2.035156 22.078125 6.015625 32.425781l25.640625 66.699219 35.585938 90.621094c1.167968 3.011719 3.949218 5.097656 7.167968 5.378906l19.011719 1.707031c2.945313.265625 5.816407-1.007812 7.59375-3.375 1.777344-2.363281 2.203125-5.476562 1.125-8.230468l-1.191406-3.074219-65.640625-167.253907c-.777344-1.984374-1.175781-4.097656-1.175781-6.226562v-20.480469c0-76.800781 59.730469-153.601562 170.664062-153.601562 110.933594 0 170.667969 76.800781 170.667969 153.601562v20.480469c0 2.128906-.398438 4.242188-1.175781 6.226562l-65.640625 167.253907-1.195313 3.074219c-1.074219 2.753906-.648437 5.867187 1.125 8.230468 1.777344 2.367188 4.652344 3.640625 7.597657 3.375l19.011718-1.707031c3.21875-.28125 5.996094-2.367187 7.167969-5.378906l35.585937-90.621094 25.683594-66.699219c3.964844-10.347656 5.988282-21.339844 5.972656-32.425781v-11.808594c0-110.933593-93.867187-196.265625-204.800781-196.265625zm0 0" fill="#ff6e2c"/><path d="m418.132812 204.800781v11.773438c.003907 11.09375-2.050781 22.085937-6.058593 32.429687l-25.597657 66.730469-35.585937 90.621094c-1.171875 3.011719-3.949219 5.097656-7.167969 5.378906l-19.03125 1.707031c-2.175781.222656-4.351562-.421875-6.058594-1.792968 3.003907-.453126 5.539063-2.46875 6.65625-5.292969l35.585938-90.621094 25.601562-66.730469c4.007813-10.34375 6.0625-21.335937 6.058594-32.429687v-11.773438c0-106.667969-86.699218-189.613281-192-195.839843 4.179688-.257813 8.53125-.425782 12.796875-.425782 110.933594 0 204.800781 85.332032 204.800781 196.265625zm0 0" fill="#e15919"/><path d="m315.988281 401.835938 1.1875-3.046876-11.46875-4.507812c-3.867187 12.546875-9.519531 24.464844-16.785156 35.398438-8.917969 14.175781-23.550781 23.78125-40.105469 26.324218l-71.433594 11.742188c-9.578124 1.488281-16.246093 10.300781-15.082031 19.921875 1.167969 9.621093 9.753907 16.582031 19.40625 15.738281 34.460938-3.640625 68.484375-10.613281 101.601563-20.820312 9.667968-2.816407 17.496094-9.933594 21.210937-19.292969l19.953125-49.871094c-2.902344.179687-5.691406-1.132813-7.40625-3.476563-1.71875-2.34375-2.121094-5.398437-1.078125-8.109374zm0 0" fill="#e15919"/><path d="m279.175781 410.753906c-1.0625-.003906-2.117187-.207031-3.105469-.597656l-31.777343-12.503906c-6.328125-2.472656-11.410157-7.363282-14.132813-13.585938-2.71875-6.222656-2.855468-13.273437-.375-19.597656l65.46875-166.777344c2.472656-6.324218 7.363282-11.410156 13.585938-14.128906 6.226562-2.722656 13.273437-2.855469 19.601562-.378906l23.824219 9.386718c4.214844 1.65625 7.597656 4.914063 9.410156 9.066407 1.808594 4.148437 1.894531 8.847656.238281 13.0625l-74.792968 190.632812c-1.28125 3.269531-4.433594 5.421875-7.945313 5.421875zm-28.644531-28.945312 23.824219 9.34375 71.679687-182.707032-23.816406-9.34375c-2.109375-.839843-4.464844-.800781-6.546875.105469-2.082031.902344-3.71875 2.601563-4.546875 4.714844l-65.433594 166.816406c-.835937 2.113281-.796875 4.472657.113282 6.554688.90625 2.082031 2.609374 3.714843 4.726562 4.539062zm0 0"/><path d="m317.183594 407.332031c-1.0625-.007812-2.113282-.207031-3.105469-.589843l-31.777344-12.503907c-2.113281-.824219-3.8125-2.460937-4.714843-4.542969-.90625-2.082031-.945313-4.4375-.109376-6.546874l65.460938-166.820313c1.71875-4.382813 6.664062-6.542969 11.050781-4.828125l31.777344 12.464844c2.109375.832031 3.800781 2.464844 4.703125 4.539062.902344 2.074219.945312 4.425782.117188 6.53125l-65.464844 166.886719c-1.285156 3.261719-4.429688 5.40625-7.9375 5.410156zm-20.703125-25.832031 15.882812 6.238281 59.222657-150.9375-15.882813-6.230469zm0 0"/><path d="m147.488281 410.753906c-3.507812 0-6.660156-2.152344-7.941406-5.421875l-74.8125-190.652343c-1.65625-4.210938-1.570313-8.910157.242187-13.0625 1.808594-4.148438 5.195313-7.410157 9.410157-9.0625l23.832031-9.386719c6.324219-2.476563 13.371094-2.339844 19.59375.378906 6.222656 2.722656 11.109375 7.804687 13.582031 14.128906l65.460938 166.808594c2.480469 6.324219 2.34375 13.375-.375 19.597656-2.722657 6.226563-7.804688 11.113281-14.132813 13.589844l-31.777344 12.464844c-.980468.394531-2.023437.601562-3.082031.617187zm-39.917969-212.25c-1.066406 0-2.121093.199219-3.113281.597656l-23.84375 9.386719 71.679688 182.695313 23.828125-9.34375c2.113281-.824219 3.8125-2.460938 4.71875-4.542969s.945312-4.4375.109375-6.550781l-65.433594-166.800782c-1.28125-3.265624-4.433594-5.417968-7.945313-5.417968zm0 0"/><path d="m109.484375 407.332031c-3.507813-.003906-6.65625-2.148437-7.9375-5.410156l-65.46875-166.828125c-.828125-2.105469-.785156-4.453125.121094-6.527344.902343-2.078125 2.59375-3.710937 4.699219-4.539062l31.78125-12.46875c2.109374-.835938 4.46875-.796875 6.550781.109375s3.714843 2.605469 4.542969 4.71875l65.457031 166.820312c.835937 2.109375.800781 4.464844-.105469 6.546875-.90625 2.082032-2.601562 3.71875-4.714844 4.546875l-31.777344 12.464844c-1.007812.382813-2.074218.574219-3.148437.566406zm-54.402344-170.53125 59.265625 150.9375 15.878906-6.238281-59.261718-150.929688zm0 0"/><path d="m323.917969 422.007812c-5.632813-.007812-10.898438-2.796874-14.074219-7.449218-3.171875-4.65625-3.847656-10.574219-1.800781-15.820313l1.1875-3.066406 65.648437-167.25c.390625-1.003906.589844-2.066406.585938-3.140625v-20.480469c0-72.089843-55.6875-145.066406-162.132813-145.066406-106.445312 0-162.132812 72.976563-162.132812 145.066406v20.480469c0 1.066406.199219 2.125.589843 3.121094l66.824219 170.34375c2.144531 5.507812 1.289063 11.730468-2.261719 16.453125-3.550781 4.722656-9.292968 7.273437-15.179687 6.738281l-19.011719-1.703125c-6.425781-.542969-11.980468-4.695313-14.320312-10.703125l-35.59375-90.675781-25.667969-66.753907c-4.351563-11.328124-6.58203125-23.359374-6.578125-35.492187v-11.808594c0-112.929687 95.703125-204.800781 213.332031-204.800781 117.632813 0 213.335938 91.871094 213.335938 204.800781v11.808594c.003906 12.132813-2.226563 24.164063-6.582031 35.492187l-25.640626 66.695313-35.609374 90.675781c-2.351563 6.058594-7.953126 10.238282-14.429688 10.769532l-18.929688 1.707031c-.519531.03125-1.039062.058593-1.558593.058593zm-110.585938-404.941406c-108.21875 0-196.265625 84.214844-196.265625 187.734375v11.808594c-.007812 10.042969 1.84375 20 5.453125 29.371094l25.644531 66.6875 35.554688 90.566406 18.996094 1.707031-1.183594-3.089844-65.621094-167.183593c-1.179687-2.992188-1.78125-6.175781-1.777344-9.386719v-20.480469c0-80.574219 61.550782-162.132812 179.199219-162.132812 117.648438 0 179.203125 81.558593 179.203125 162.132812v20.480469c.003906 3.210938-.597656 6.394531-1.769531 9.386719l-66.824219 170.253906 19.023438-1.703125 35.566406-90.617188 25.597656-66.636718c3.617188-9.363282 5.46875-19.316406 5.472656-29.355469v-11.808594c0-103.519531-88.046874-187.734375-196.269531-187.734375zm0 0"/><path d="m180.265625 512c-6.738281.003906-13.230469-2.53125-18.183594-7.101562-7.472656-6.898438-10.328125-17.46875-7.347656-27.195313 2.984375-9.722656 11.277344-16.875 21.332031-18.394531l71.347656-11.726563c14.148438-2.148437 26.660157-10.339843 34.289063-22.441406 6.8125-10.175781 12.113281-21.285156 15.742187-32.984375.613282-2.363281 2.207032-4.351562 4.382813-5.464844 2.171875-1.109375 4.71875-1.234375 6.992187-.34375l11.46875 4.496094c2.113282.824219 3.808594 2.457031 4.714844 4.535156s.949219 4.433594.117188 6.542969l-1.1875 3.042969v.042968c2.902344-.164062 5.6875 1.160157 7.394531 3.511719 1.707031 2.355469 2.097656 5.414063 1.035156 8.121094l-19.941406 49.859375c-4.671875 11.816406-14.554687 20.800781-26.761719 24.328125-33.660156 10.386719-68.261718 17.449219-103.304687 21.085937-.699219.085938-1.390625.085938-2.089844.085938zm128.09375-100.113281c-3.5625 7.710937-7.640625 15.171875-12.210937 22.332031-10.242188 16.285156-27.058594 27.3125-46.078126 30.214844l-71.324218 11.726562c-4.667969.65625-8.125 4.671875-8.078125 9.386719 0 2.597656 1.089843 5.074219 3.003906 6.828125 1.988281 1.835938 4.652344 2.761719 7.355469 2.558594 33.867187-3.554688 67.304687-10.414063 99.839844-20.480469 7.15625-2.066406 12.949218-7.34375 15.675781-14.277344l16.742187-41.8125c-2.128906-1.710937-3.824218-3.894531-4.949218-6.382812zm0 0"/></svg>