<svg height="512" viewBox="0 0 64 64" width="512" xmlns="http://www.w3.org/2000/svg"><g id="Filled_outline" data-name="Filled outline"><path d="m3 18h58v28h-58z" fill="#394d5c"/><g fill="#69e15b"><path d="m7 22h6v4h-6z"/><path d="m7 30h4v4h-4z"/><path d="m17 22h4v4h-4z"/><path d="m15 30h4v4h-4z"/></g><path d="m25 22h4v4h-4z" fill="#c8d952"/><path d="m23 30h4v4h-4z" fill="#c8d952"/><path d="m33 22h4v4h-4z" fill="#fcf05a"/><path d="m31 30h4v4h-4z" fill="#fcf05a"/><path d="m41 22h4v4h-4z" fill="#e1462b"/><path d="m49 22h8v4h-8z" fill="#be2821"/><path d="m39 30h4v4h-4z" fill="#e1462b"/><path d="m19 38h4v4h-4z" fill="#c8d952"/><path d="m45 38h4v4h-4z" fill="#e1462b"/><path d="m53 38h4v4h-4z" fill="#be2821"/><path d="m27 38h14v4h-14z" fill="#fcf05a"/><path d="m7 38h8v4h-8z" fill="#69e15b"/><path d="m47 30h10v4h-10z" fill="#be2821"/><path d="m23 18h-20v-1.656l2.304-2.344h15.392l2.304 2.344z" fill="#143441"/><path d="m61 18h-20v-1.656l2.304-2.344h15.392l2.304 2.344z" fill="#143441"/><path d="m3 46 5 4h48l5-4z" fill="#143441"/><path d="m7 27h6a1 1 0 0 0 1-1v-4a1 1 0 0 0 -1-1h-6a1 1 0 0 0 -1 1v4a1 1 0 0 0 1 1zm1-4h4v2h-4z"/><path d="m7 35h4a1 1 0 0 0 1-1v-4a1 1 0 0 0 -1-1h-4a1 1 0 0 0 -1 1v4a1 1 0 0 0 1 1zm1-4h2v2h-2z"/><path d="m17 27h4a1 1 0 0 0 1-1v-4a1 1 0 0 0 -1-1h-4a1 1 0 0 0 -1 1v4a1 1 0 0 0 1 1zm1-4h2v2h-2z"/><path d="m14 34a1 1 0 0 0 1 1h4a1 1 0 0 0 1-1v-4a1 1 0 0 0 -1-1h-4a1 1 0 0 0 -1 1zm2-3h2v2h-2z"/><path d="m25 27h4a1 1 0 0 0 1-1v-4a1 1 0 0 0 -1-1h-4a1 1 0 0 0 -1 1v4a1 1 0 0 0 1 1zm1-4h2v2h-2z"/><path d="m22 34a1 1 0 0 0 1 1h4a1 1 0 0 0 1-1v-4a1 1 0 0 0 -1-1h-4a1 1 0 0 0 -1 1zm2-3h2v2h-2z"/><path d="m33 27h4a1 1 0 0 0 1-1v-4a1 1 0 0 0 -1-1h-4a1 1 0 0 0 -1 1v4a1 1 0 0 0 1 1zm1-4h2v2h-2z"/><path d="m30 34a1 1 0 0 0 1 1h4a1 1 0 0 0 1-1v-4a1 1 0 0 0 -1-1h-4a1 1 0 0 0 -1 1zm2-3h2v2h-2z"/><path d="m41 27h4a1 1 0 0 0 1-1v-4a1 1 0 0 0 -1-1h-4a1 1 0 0 0 -1 1v4a1 1 0 0 0 1 1zm1-4h2v2h-2z"/><path d="m49 27h8a1 1 0 0 0 1-1v-4a1 1 0 0 0 -1-1h-8a1 1 0 0 0 -1 1v4a1 1 0 0 0 1 1zm1-4h6v2h-6z"/><path d="m38 34a1 1 0 0 0 1 1h4a1 1 0 0 0 1-1v-4a1 1 0 0 0 -1-1h-4a1 1 0 0 0 -1 1zm2-3h2v2h-2z"/><path d="m23 37h-4a1 1 0 0 0 -1 1v4a1 1 0 0 0 1 1h4a1 1 0 0 0 1-1v-4a1 1 0 0 0 -1-1zm-1 4h-2v-2h2z"/><path d="m49 37h-4a1 1 0 0 0 -1 1v4a1 1 0 0 0 1 1h4a1 1 0 0 0 1-1v-4a1 1 0 0 0 -1-1zm-1 4h-2v-2h2z"/><path d="m57 37h-4a1 1 0 0 0 -1 1v4a1 1 0 0 0 1 1h4a1 1 0 0 0 1-1v-4a1 1 0 0 0 -1-1zm-1 4h-2v-2h2z"/><path d="m41 37h-14a1 1 0 0 0 -1 1v4a1 1 0 0 0 1 1h14a1 1 0 0 0 1-1v-4a1 1 0 0 0 -1-1zm-1 4h-12v-2h12z"/><path d="m7 43h8a1 1 0 0 0 1-1v-4a1 1 0 0 0 -1-1h-8a1 1 0 0 0 -1 1v4a1 1 0 0 0 1 1zm1-4h6v2h-6z"/><path d="m46 34a1 1 0 0 0 1 1h10a1 1 0 0 0 1-1v-4a1 1 0 0 0 -1-1h-10a1 1 0 0 0 -1 1zm2-3h8v2h-8z"/><path d="m59.409 13.3a1 1 0 0 0 -.709-.3h-15.4a1 1 0 0 0 -.713.3l-2.3 2.344a1 1 0 0 0 -.287.7v.656h-16v-.656a1 1 0 0 0 -.287-.7l-2.3-2.344a1 1 0 0 0 -.713-.3h-15.4a1 1 0 0 0 -.713.3l-2.3 2.344a1 1 0 0 0 -.287.7v29.656a.982.982 0 0 0 .385.769l4.99 4.012a1 1 0 0 0 .625.219h48a1 1 0 0 0 .625-.219l4.99-4.012a.982.982 0 0 0 .385-.769v-29.656a1 1 0 0 0 -.287-.7zm-55.409 3.453 1.724-1.753h14.552l1.724 1.753v.247h-18zm51.649 32.247h-47.298l-2.5-2h52.3zm4.351-4h-56v-26h56zm0-28h-18v-.247l1.724-1.753h14.552l1.724 1.753z"/></g></svg>