<svg id="Capa_1" enable-background="new 0 0 512 512" height="512" viewBox="0 0 512 512" width="512" xmlns="http://www.w3.org/2000/svg"><g><path d="m484.446 119.424h-340.919c-4.15 0-7.515 3.364-7.515 7.515 0 4.15 3.365 7.515 7.515 7.515h340.919c6.906 0 12.524 5.618 12.524 12.524v218.044c0 6.906-5.618 12.525-12.524 12.525h-85.914c-4.151 0-7.515 3.365-7.515 7.515s3.364 7.515 7.515 7.515h85.914c15.193 0 27.554-12.361 27.554-27.554v-218.045c0-15.193-12.361-27.554-27.554-27.554z"/><path d="m368.474 377.547h-340.92c-6.906 0-12.524-5.618-12.524-12.525v-218.044c0-6.906 5.618-12.524 12.524-12.524h85.914c4.15 0 7.515-3.365 7.515-7.515s-3.365-7.515-7.515-7.515h-85.914c-15.193 0-27.554 12.361-27.554 27.554v218.044c0 15.193 12.361 27.554 27.554 27.554h340.92c4.151 0 7.515-3.364 7.515-7.515-.001-4.15-3.365-7.514-7.515-7.514z"/><path d="m468.504 348.517c4.151 0 7.515-3.364 7.515-7.515v-170.004c0-4.15-3.364-7.515-7.515-7.515h-425.008c-4.15 0-7.515 3.364-7.515 7.515v170.004c0 4.15 3.365 7.515 7.515 7.515zm-119.987-57.531v-27.472h112.473v27.472zm-85.002 0v-27.472h27.472v27.472zm-42.501 0v-27.472h27.472v27.472zm-42.501 0v-27.472h27.472v27.472zm0-69.972h27.472v27.472h-27.472zm-15.03 27.471h-27.471v-27.472h27.471zm185.034 0v-27.472h27.472v27.472zm-15.03 0h-27.472v-27.472h27.472zm-42.501 0h-27.472v-27.472h27.472zm-42.501 0h-27.472v-27.472h27.472zm57.531 15.03h27.472v27.472h-27.472zm154.973-15.03h-69.972v-27.472h69.972zm-69.971-42.501v-27.472h27.472v27.472zm-15.03 0h-27.472v-27.472h27.472zm-42.501 0h-27.472v-27.472h27.472zm-42.501 0h-27.472v-27.472h27.472zm-42.501 0h-27.472v-27.472h27.472zm-42.501 0h-27.472v-27.472h27.472zm-42.501 0h-27.471v-27.472h27.471zm-42.5 0h-27.472v-27.472h27.472zm0 15.03v27.472h-69.973v-27.472zm-69.973 42.501h112.473v27.472h-112.473zm69.973 42.501v27.472h-27.472v-27.472zm15.029 0h27.471v27.472h-27.471zm42.501 0h154.975v27.472h-154.975zm170.004 0h27.472v27.472h-27.472zm42.501 0h27.472v27.472h-27.472zm42.501 27.471v-27.472h27.471v27.472zm27.47-127.503h-27.471v-27.472h27.471zm-382.507-27.471v27.472h-27.472v-27.472zm-27.472 127.503h27.472v27.472h-27.472z"/></g></svg>