<?xml version="1.0" encoding="iso-8859-1"?>
<!-- Generator: Adobe Illustrator 19.0.0, SVG Export Plug-In . SVG Version: 6.00 Build 0)  -->
<svg version="1.1" id="Capa_1" xmlns="http://www.w3.org/2000/svg" xmlns:xlink="http://www.w3.org/1999/xlink" x="0px" y="0px"
	 viewBox="0 0 512.001 512.001" style="enable-background:new 0 0 512.001 512.001;" xml:space="preserve">
<g>
	<g>
		<path d="M484.172,248.641h-78.307c-4.145,0-7.504,3.359-7.504,7.504c0,4.145,3.359,7.504,7.504,7.504h78.307
			c7.07,0,12.821,5.752,12.821,12.822v207.205c0,7.069-5.751,12.821-12.821,12.821H27.828c-7.07,0-12.821-5.752-12.821-12.821
			V276.469c0-7.07,5.751-12.822,12.821-12.822h338.019c4.145,0,7.504-3.359,7.504-7.504c0-4.145-3.359-7.504-7.504-7.504h-76.749
			v-17.913c0-8.698-7.077-15.775-15.775-15.775h-10.738v-12.683c0-11.763,9.57-21.333,21.334-21.333h13.36
			c20.038,0,36.341-16.303,36.341-36.341v-20.363c0-20.038-16.303-36.341-36.341-36.341h-12.44c-11.764,0-21.334-9.57-21.334-21.333
			V8.003c0-4.145-3.359-7.504-7.504-7.504c-4.145,0-7.504,3.359-7.504,7.504v58.555c0,20.038,16.303,36.341,36.341,36.341h12.44
			c11.763,0,21.333,9.57,21.333,21.333v20.363c0,11.763-9.57,21.333-21.333,21.333h-13.36c-20.038,0-36.341,16.303-36.341,36.341
			v12.683h-9.237c-8.698,0-15.775,7.077-15.775,15.775v17.913H27.828C12.483,248.641,0,261.124,0,276.469v207.205
			c0,15.344,12.483,27.828,27.828,27.828h456.345c15.344,0,27.828-12.483,27.828-27.828V276.469
			C512,261.124,499.517,248.641,484.172,248.641z M238.34,229.96h34.982c0.423,0,0.768,0.345,0.768,0.768v17.913h-36.517v-17.913
			h-0.001C237.572,230.305,237.917,229.96,238.34,229.96z"/>
	</g>
</g>
<g>
	<g>
		<path d="M77.781,283.982h-33.13c-6.695,0-12.141,5.446-12.141,12.141v30.488c0.001,6.695,5.447,12.141,12.141,12.141h33.13
			c6.695,0,12.141-5.446,12.141-12.141v-30.488C89.922,289.428,84.476,283.982,77.781,283.982z M74.915,323.745H47.518V298.99
			h27.397V323.745z"/>
	</g>
</g>
<g>
	<g>
		<path d="M142.709,283.983h-33.13c-6.695,0-12.141,5.446-12.141,12.141v30.488c0,6.695,5.446,12.141,12.141,12.141h33.13
			c6.695,0,12.142-5.446,12.142-12.141v-30.488C154.85,289.429,149.403,283.983,142.709,283.983z M139.843,323.745h-27.398V298.99
			h27.398V323.745z"/>
	</g>
</g>
<g>
	<g>
		<path d="M207.637,283.983h-33.13c-6.695,0-12.141,5.446-12.141,12.141v30.488c0,6.695,5.446,12.141,12.141,12.141h33.13
			c6.695,0,12.141-5.446,12.141-12.141v-30.488C219.778,289.429,214.332,283.983,207.637,283.983z M204.77,323.745h-27.397V298.99
			h27.397V323.745z"/>
	</g>
</g>
<g>
	<g>
		<path d="M272.565,283.983h-33.13c-6.695,0-12.141,5.446-12.141,12.141v30.488c0,6.695,5.446,12.141,12.141,12.141h33.13
			c6.695,0,12.142-5.446,12.142-12.141v-30.488C284.706,289.429,279.259,283.983,272.565,283.983z M269.699,323.745h-27.398V298.99
			h27.398V323.745z"/>
	</g>
</g>
<g>
	<g>
		<path d="M337.493,283.983h-33.13c-6.695,0-12.141,5.446-12.141,12.141v30.488c0,6.695,5.446,12.141,12.141,12.141h33.13
			c6.695,0,12.141-5.446,12.141-12.141v-30.488C349.634,289.429,344.188,283.983,337.493,283.983z M334.626,323.745h-27.397V298.99
			h27.397V323.745z"/>
	</g>
</g>
<g>
	<g>
		<path d="M402.42,283.983h-33.13c-6.695,0-12.141,5.446-12.141,12.141v30.488c0,6.695,5.446,12.141,12.141,12.141h33.13
			c6.695,0,12.142-5.446,12.142-12.141v-30.488C414.562,289.429,409.115,283.983,402.42,283.983z M399.555,323.745h-27.398V298.99
			h27.398V323.745z"/>
	</g>
</g>
<g>
	<g>
		<path d="M467.349,283.982h-33.13c-6.695,0-12.141,5.446-12.141,12.141v30.488c0,6.695,5.446,12.141,12.141,12.141h33.13
			c6.695,0,12.141-5.446,12.141-12.141v-30.488C479.49,289.428,474.044,283.982,467.349,283.982z M464.482,323.745h-27.397V298.99
			h27.397V323.745z"/>
	</g>
</g>
<g>
	<g>
		<path d="M106.16,356.023H44.651c-6.695,0-12.141,5.446-12.141,12.141v30.488c0,6.695,5.446,12.141,12.141,12.141h61.509
			c6.695-0.001,12.141-5.447,12.141-12.141v-30.488C118.301,361.469,112.855,356.023,106.16,356.023z M103.294,395.785
			L103.294,395.785H47.518V371.03h55.776V395.785z"/>
	</g>
</g>
<g>
	<g>
		<path d="M467.349,356.022H405.84c-6.695,0.001-12.141,5.447-12.141,12.141v30.488c0,6.695,5.446,12.141,12.141,12.141h61.509
			c6.695,0,12.141-5.446,12.141-12.141v-30.488C479.49,361.468,474.044,356.022,467.349,356.022z M464.483,395.785h-55.776V371.03
			h55.776V395.785z"/>
	</g>
</g>
<g>
	<g>
		<path d="M172.328,356.022h-33.13c-6.695,0.001-12.141,5.447-12.141,12.141v30.488c0,6.695,5.446,12.141,12.141,12.141h33.13
			c6.695,0,12.142-5.446,12.142-12.141v-30.488C184.47,361.468,179.023,356.022,172.328,356.022z M169.462,395.785h-27.398V371.03
			h27.398V395.785z"/>
	</g>
</g>
<g>
	<g>
		<path d="M239.153,356.022h-33.13c-6.696,0.001-12.141,5.447-12.141,12.141v30.488c0,6.695,5.446,12.141,12.141,12.141h33.13
			c6.695,0,12.142-5.446,12.142-12.141v-30.488C251.295,361.468,245.848,356.022,239.153,356.022z M236.287,395.785h-27.398V371.03
			h27.398V395.785z"/>
	</g>
</g>
<g>
	<g>
		<path d="M305.977,356.022h-33.13c-6.695,0.001-12.141,5.447-12.141,12.141v30.488c0,6.695,5.446,12.141,12.141,12.141h33.13
			c6.695,0,12.142-5.446,12.142-12.141v-30.488C318.119,361.468,312.672,356.022,305.977,356.022z M303.112,395.785h-27.398V371.03
			h27.398V395.785z"/>
	</g>
</g>
<g>
	<g>
		<path d="M372.802,356.022h-33.13c-6.695,0.001-12.141,5.447-12.141,12.141v30.488c0,6.695,5.446,12.141,12.141,12.141h33.13
			c6.695,0,12.142-5.446,12.142-12.141v-30.488C384.944,361.468,379.497,356.022,372.802,356.022z M369.936,395.785h-27.398V371.03
			h27.398V395.785z"/>
	</g>
</g>
<g>
	<g>
		<path d="M396.566,428.062H175.772c-4.145,0-7.504,3.359-7.504,7.504c0,4.145,3.359,7.504,7.504,7.504h217.927v24.755H118.301
			V443.07h17.574c4.145,0,7.504-3.359,7.504-7.504c0-4.145-3.359-7.504-7.504-7.504h-20.44c-6.695,0-12.141,5.446-12.141,12.141
			v30.488c-0.001,6.695,5.445,12.141,12.14,12.141h281.132c6.695,0,12.141-5.446,12.141-12.141v-30.488
			C408.707,433.508,403.261,428.062,396.566,428.062z"/>
	</g>
</g>
<g>
	<g>
		<path d="M77.781,428.063h-33.13c-6.695,0-12.141,5.446-12.141,12.141v30.488c0,6.695,5.446,12.141,12.141,12.141h33.13
			c6.695,0,12.141-5.446,12.141-12.141v-30.488C89.922,433.509,84.476,428.063,77.781,428.063z M74.915,467.825H47.518V443.07
			h27.397V467.825z"/>
	</g>
</g>
<g>
	<g>
		<path d="M467.349,428.063h-33.13c-6.695,0-12.141,5.446-12.141,12.141v30.488c0,6.695,5.446,12.141,12.141,12.141h33.13
			c6.695,0,12.141-5.446,12.141-12.141v-30.488C479.489,433.509,474.043,428.063,467.349,428.063z M464.482,467.825h-27.397V443.07
			h27.397V467.825z"/>
	</g>
</g>
<g>
</g>
<g>
</g>
<g>
</g>
<g>
</g>
<g>
</g>
<g>
</g>
<g>
</g>
<g>
</g>
<g>
</g>
<g>
</g>
<g>
</g>
<g>
</g>
<g>
</g>
<g>
</g>
<g>
</g>
</svg>
