<svg id="Capa_1" enable-background="new 0 0 512 512" height="512" viewBox="0 0 512 512" width="512" xmlns="http://www.w3.org/2000/svg"><g><path d="m149.526 296.862v23.403c0 5.788 4.709 10.497 10.498 10.497h191.951c5.789 0 10.498-4.709 10.498-10.497v-23.403c0-5.788-4.709-10.497-10.498-10.497h-191.951c-5.789 0-10.498 4.709-10.498 10.497zm15 4.503h182.947v14.397h-182.947z"/><path d="m383.5 236.861v24c0 5.79 4.71 10.5 10.5 10.5h77.974c5.79 0 10.5-4.71 10.5-10.5v-24c0-5.79-4.71-10.5-10.5-10.5h-77.974c-5.79 0-10.5 4.71-10.5 10.5zm15 4.5h68.974v15h-68.974z"/><path d="m30 260.864c0 5.788 4.709 10.497 10.497 10.497h77.506c5.788 0 10.497-4.709 10.497-10.497v-24.005c0-5.789-4.709-10.498-10.497-10.498h-77.506c-5.788 0-10.497 4.709-10.497 10.498zm15-19.503h68.5v15h-68.5z"/><path d="m471.5 211.361c5.79 0 10.5-4.71 10.5-10.5v-24c0-5.79-4.71-10.5-10.5-10.5h-71c-5.79 0-10.5 4.71-10.5 10.5v24c0 5.79 4.71 10.5 10.5 10.5zm-66.5-30h62v15h-62z"/><path d="m40.497 211.361h24.006c5.788 0 10.497-4.709 10.497-10.497v-24.005c0-5.789-4.709-10.498-10.497-10.498h-24.006c-5.788 0-10.497 4.709-10.497 10.498v24.005c0 5.788 4.709 10.497 10.497 10.497zm4.503-30h15v15h-15z"/><path d="m135 176.859c0-5.789-4.709-10.498-10.497-10.498h-24.006c-5.788 0-10.497 4.709-10.497 10.498v24.005c0 5.788 4.709 10.497 10.497 10.497h24.006c5.788 0 10.497-4.709 10.497-10.497zm-15 19.502h-15v-15h15z"/><path d="m184.503 166.361h-24.006c-5.788 0-10.497 4.709-10.497 10.498v24.005c0 5.788 4.709 10.497 10.497 10.497h24.006c5.788 0 10.497-4.709 10.497-10.497v-24.005c0-5.789-4.709-10.498-10.497-10.498zm-4.503 30h-15v-15h15z"/><path d="m244.503 211.361c5.788 0 10.497-4.709 10.497-10.497v-24.005c0-5.789-4.709-10.498-10.497-10.498h-24.006c-5.788 0-10.497 4.709-10.497 10.498v24.005c0 5.788 4.709 10.497 10.497 10.497zm-19.503-30h15v15h-15z"/><path d="m304.503 211.361c5.788 0 10.497-4.709 10.497-10.497v-24.005c0-5.789-4.709-10.498-10.497-10.498h-24.006c-5.788 0-10.497 4.709-10.497 10.498v24.005c0 5.788 4.709 10.497 10.497 10.497zm-19.503-30h15v15h-15z"/><path d="m364.503 211.361c5.788 0 10.497-4.709 10.497-10.497v-24.005c0-5.789-4.709-10.498-10.497-10.498h-24.006c-5.788 0-10.497 4.709-10.497 10.498v24.005c0 5.788 4.709 10.497 10.497 10.497zm-19.503-30h15v15h-15z"/><path d="m143.5 236.859v24.005c0 5.788 4.709 10.497 10.497 10.497h24.006c5.788 0 10.497-4.709 10.497-10.497v-24.005c0-5.789-4.709-10.498-10.497-10.498h-24.006c-5.788 0-10.497 4.709-10.497 10.498zm15 4.502h15v15h-15z"/><path d="m203.5 236.859v24.005c0 5.788 4.709 10.497 10.497 10.497h24.006c5.788 0 10.497-4.709 10.497-10.497v-24.005c0-5.789-4.709-10.498-10.497-10.498h-24.006c-5.788 0-10.497 4.709-10.497 10.498zm15 4.502h15v15h-15z"/><path d="m263.5 236.859v24.005c0 5.788 4.709 10.497 10.497 10.497h24.006c5.788 0 10.497-4.709 10.497-10.497v-24.005c0-5.789-4.709-10.498-10.497-10.498h-24.006c-5.788 0-10.497 4.709-10.497 10.498zm15 4.502h15v15h-15z"/><path d="m323.5 236.859v24.005c0 5.788 4.709 10.497 10.497 10.497h24.006c5.788 0 10.497-4.709 10.497-10.497v-24.005c0-5.789-4.709-10.498-10.497-10.498h-24.006c-5.788 0-10.497 4.709-10.497 10.498zm15 4.502h15v15h-15z"/><path d="m447.971 286.064c-5.788 0-10.497 4.709-10.497 10.498v24.005c0 5.788 4.709 10.497 10.497 10.497h24.005c5.789 0 10.498-4.709 10.498-10.497v-24.005c0-5.789-4.709-10.498-10.498-10.498zm19.503 30h-15v-15h15z"/><path d="m377.474 296.562v24.005c0 5.788 4.709 10.497 10.497 10.497h24.005c5.789 0 10.498-4.709 10.498-10.497v-24.005c0-5.789-4.709-10.498-10.498-10.498h-24.005c-5.788 0-10.497 4.709-10.497 10.498zm15 4.502h15v15h-15z"/><path d="m124.503 286.064h-24.006c-5.788 0-10.497 4.709-10.497 10.498v24.005c0 5.788 4.709 10.497 10.497 10.497h24.006c5.788 0 10.497-4.709 10.497-10.497v-24.005c0-5.789-4.709-10.498-10.497-10.498zm-4.503 30h-15v-15h15z"/><path d="m30 320.566c0 5.788 4.709 10.497 10.497 10.497h24.003c5.79 0 10.5-4.71 10.5-10.5v-24.002c0-5.789-4.709-10.498-10.497-10.498h-24.006c-5.788 0-10.497 4.709-10.497 10.498zm15-19.502h15v15h-15z"/><path d="m511.216 356.463c.387-.835.794-1.895.784-3.374v-209.228c-.022-.37-.009-.779-.179-1.627l-8.26-37.169c-1.793-8.068-8.817-13.704-17.083-13.704h-123.141c-4.328 0-8.485 1.595-11.707 4.492l-11.675 10.508h-167.91l-11.676-10.509c-3.22-2.896-7.377-4.491-11.705-4.491h-59.834c-4.143 0-7.5 3.357-7.5 7.5s3.357 7.5 7.5 7.5h59.833c.618 0 1.213.229 1.672.643l32.62 29.357h-166.106l6.232-28.042c.252-1.135 1.278-1.958 2.44-1.958h28.585c4.143 0 7.5-3.357 7.5-7.5s-3.357-7.5-7.5-7.5h-28.585c-8.266 0-15.29 5.636-17.083 13.704l-8.26 37.169c-.109.676-.084.295-.179 1.627v113.873c0 4.143 3.357 7.5 7.5 7.5s7.5-3.357 7.5-7.5v-106.373h351.702c4.143 0 7.5-3.357 7.5-7.5s-3.357-7.5-7.5-7.5h-37.657l32.618-29.356c.461-.415 1.056-.644 1.674-.644h123.142c1.162 0 2.188.823 2.44 1.958l6.231 28.042h-93.214c-4.143 0-7.5 3.357-7.5 7.5s3.357 7.5 7.5 7.5h95.065v194.277h-482v-53.011c0-4.143-3.357-7.5-7.5-7.5s-7.5 3.357-7.5 7.5v60.461c.049 1.275.239 2.711 1.292 4.258l16.998 25.498c3.253 4.88 8.696 7.793 14.562 7.793h32.881c.216 0 .43.027.637.082l111.469 29.34c1.454.384 2.954.578 4.456.578h78.876c4.143 0 7.5-3.357 7.5-7.5s-3.357-7.5-7.5-7.5h-78.876c-.213 0-.426-.027-.636-.083l-111.471-29.339c-1.452-.382-2.951-.576-4.455-.576h-32.881c-.838 0-1.615-.416-2.08-1.113l-9.258-13.887h147.879l26.342 26.341c2.362 2.359 5.5 3.659 8.837 3.659h102.857c3.337 0 6.475-1.3 8.84-3.661l26.339-26.339h147.879l-9.258 13.887c-.465.697-1.242 1.113-2.08 1.113h-32.881c-1.504 0-3.003.194-4.455.576l-111.473 29.342c-.208.055-.421.082-.634.082h-33.43c-4.143 0-7.5 3.357-7.5 7.5s3.357 7.5 7.5 7.5h33.43c1.502 0 3.002-.194 4.454-.577l111.471-29.341c.207-.055.421-.082.637-.082h32.881c5.865 0 11.309-2.913 14.561-7.793.739-1.236 16.718-24.839 17.506-26.383zm-305.838-220.102-16.667-15h134.577l-16.667 15zm101.016 239.278h-100.788l-15-15h130.786z"/></g></svg>