<?xml version="1.0" encoding="iso-8859-1"?>
<!-- Generator: Adobe Illustrator 19.0.0, SVG Export Plug-In . SVG Version: 6.00 Build 0)  -->
<svg version="1.1" id="Layer_1" xmlns="http://www.w3.org/2000/svg" xmlns:xlink="http://www.w3.org/1999/xlink" x="0px" y="0px"
	 viewBox="0 0 512 512" style="enable-background:new 0 0 512 512;" xml:space="preserve">
<polygon style="fill:#1D1D1F;" points="247.714,139.74 247.714,139.74 127.406,70.282 7.874,139.746 0,219.657 128.207,293.678 
	255.588,219.651 "/>
<polygon style="fill:#3E3D43;" points="247.714,139.74 128.182,209.205 7.874,139.746 127.406,70.282 "/>
<polygon style="fill:#2E2E30;" points="7.874,139.746 0,219.657 128.207,293.678 128.207,209.205 "/>
<polygon style="fill:#1D1D1F;" points="247.714,139.74 255.588,219.651 128.207,293.678 128.207,209.205 "/>
<path style="fill:#FFFFFF;" d="M114.942,135.288l35.211-9.028l-15.805,20.231L114.942,135.288 M164.975,122.397l-8.199-4.733
	l-82.581,20.668l9.956,5.748l22.223-5.748l22.92,13.233l-9.766,12.94l9.87,5.699L164.975,122.397"/>
<polygon style="fill:#1D1D1F;" points="503.299,139.738 503.299,139.738 382.992,70.279 263.461,139.744 255.585,219.654 
	383.793,293.675 511.173,219.649 "/>
<polygon style="fill:#3E3D43;" points="503.299,139.738 383.767,209.202 263.461,139.744 382.992,70.279 "/>
<polygon style="fill:#2E2E30;" points="263.461,139.744 255.585,219.654 383.793,293.675 383.793,209.202 "/>
<polygon style="fill:#1D1D1F;" points="503.299,139.738 511.173,219.649 383.793,293.675 383.793,209.202 "/>
<path style="fill:#FFFFFF;" d="M450.604,151.52l-10.286-5.938l-66.675,17.333l12.822-17.72l36.376-9.415l-8.784-5.072l-27.383,7.39
	l12.748-15.84l-8.864-5.118l-16.056,21.148l-30.55,7.485l29.621-38.726l-10.2-5.889l-34.491,48.433l8.028,4.635l37.546-8.936
	l-15.383,21.732l8.028,4.635L450.604,151.52"/>
<polygon style="fill:#1D1D1F;" points="375.918,213.764 375.918,213.764 255.611,144.305 136.079,213.769 128.204,293.68 
	256.412,367.701 383.793,293.675 "/>
<polygon style="fill:#3E3D43;" points="375.918,213.764 256.386,283.229 136.079,213.769 255.611,144.305 "/>
<polygon style="fill:#2E2E30;" points="136.079,213.769 128.204,293.68 256.412,367.701 256.412,283.229 "/>
<polygon style="fill:#1D1D1F;" points="375.918,213.764 383.793,293.675 256.412,367.701 256.412,283.229 "/>
<path style="fill:#FFFFFF;" d="M286.141,194.243c-3.065-1.769-6.303-3.188-9.692-4.248c-3.406-1.064-6.822-1.707-10.268-1.93
	c-3.452-0.227-6.851-0.009-10.209,0.65c-3.357,0.659-6.478,1.829-9.359,3.503c-2.327,1.352-3.929,2.718-4.811,4.1
	c-0.882,1.389-1.208,2.849-0.978,4.396c0.23,1.546,1.016,3.204,2.363,4.977c1.342,1.769,3.11,3.732,5.287,5.892
	c1.904,1.864,3.551,3.555,4.948,5.069c1.397,1.513,2.419,2.889,3.067,4.126c0.642,1.241,0.846,2.367,0.597,3.381
	c-0.238,1.015-1.111,1.956-2.608,2.826c-2.491,1.447-5.378,1.967-8.657,1.546c-3.289-0.42-6.765-1.694-10.444-3.818
	c-2.285-1.32-4.227-2.741-5.822-4.271c-1.596-1.53-2.925-3.036-3.981-4.517c-1.068-1.481-1.836-2.872-2.319-4.179
	c-0.484-1.3-0.722-2.373-0.726-3.207l-12.241,2.173c0.796,3.476,2.617,6.824,5.469,10.041c2.858,3.22,6.541,6.133,11.06,8.742
	c3.008,1.737,6.139,3.178,9.398,4.32c3.259,1.142,6.557,1.894,9.896,2.245c3.334,0.354,6.655,0.236,9.961-0.362
	c3.301-0.595,6.445-1.763,9.439-3.503c2.66-1.546,4.454-3.122,5.397-4.73c0.932-1.608,1.201-3.266,0.806-4.974
	c-0.406-1.707-1.374-3.516-2.91-5.437c-1.541-1.91-3.457-3.946-5.747-6.105c-1.846-1.772-3.425-3.338-4.737-4.71
	c-1.311-1.366-2.236-2.606-2.775-3.716c-0.528-1.11-0.635-2.101-0.306-2.971c0.329-0.87,1.214-1.72,2.655-2.557
	c2.547-1.481,5.474-2.101,8.785-1.858c3.305,0.239,6.939,1.5,10.902,3.788c1.786,1.03,3.327,2.15,4.644,3.355
	c1.31,1.208,2.377,2.4,3.188,3.575c0.811,1.176,1.401,2.268,1.77,3.286c0.363,1.015,0.52,1.858,0.473,2.531l11.908-1.979
	c-0.683-2.574-2.087-5.216-4.216-7.918C293.223,199.073,290.155,196.561,286.141,194.243z"/>
<polygon style="fill:#1D1D1F;" points="504.126,287.785 504.126,287.785 383.818,218.325 264.286,287.79 256.412,367.701 
	384.619,441.721 512,367.695 "/>
<polygon style="fill:#3E3D43;" points="504.126,287.785 384.593,357.249 264.286,287.79 383.818,218.325 "/>
<polygon style="fill:#2E2E30;" points="264.286,287.79 256.412,367.701 384.619,441.721 384.619,357.249 "/>
<polygon style="fill:#1D1D1F;" points="504.126,287.785 512,367.695 384.619,441.721 384.619,357.249 "/>
<path style="fill:#FFFFFF;" d="M350.138,291.172l42.541-24.722l11.707,6.759c3.065,1.769,5.275,3.654,6.623,5.65
	c1.337,1.996,1.922,4.015,1.74,6.056c-0.181,2.048-1.144,4.077-2.884,6.09c-1.74,2.012-4.161,3.919-7.262,5.722
	c-3.045,1.769-6.29,3.168-9.73,4.198c-3.44,1.031-6.939,1.628-10.497,1.786c-3.553,0.161-7.085-0.144-10.586-0.915
	c-3.512-0.771-6.824-2.062-9.945-3.864L350.138,291.172 M412.617,268.426l-21.078-12.169l-59.002,34.288l21.078,12.169
	c4.406,2.544,9.104,4.431,14.087,5.673c4.977,1.237,10.013,1.835,15.097,1.786c5.083-0.049,10.123-0.732,15.114-2.052
	s9.741-3.283,14.226-5.889c4.045-2.35,7.238-4.917,9.585-7.705c2.348-2.787,3.635-5.65,3.873-8.594
	c0.233-2.948-0.679-5.909-2.719-8.886C420.826,274.069,417.41,271.193,412.617,268.426"/>
<g>
</g>
<g>
</g>
<g>
</g>
<g>
</g>
<g>
</g>
<g>
</g>
<g>
</g>
<g>
</g>
<g>
</g>
<g>
</g>
<g>
</g>
<g>
</g>
<g>
</g>
<g>
</g>
<g>
</g>
</svg>
