<svg height="512pt" viewBox="0 0 512 512.00013" width="512pt" xmlns="http://www.w3.org/2000/svg"><path d="m511.632812 268.046875c-.84375-4.136719-4.226562-7.359375-8.414062-7.96875-4.199219-.613281-8.441406 1.59375-10.363281 5.375-1.84375 3.625-1.285157 8.109375 1.394531 11.171875 2.800781 3.203125 7.453125 4.28125 11.378906 2.65625 4.359375-1.800781 6.949219-6.601562 6.003906-11.234375zm0 0"/><path d="m486.570312 296.300781c-4.800781-2.777343-10.941406-1.140625-13.71875 3.65625l-23.140624 39.96875c-7.230469 12.476563-23.261719 16.75-35.738282 9.523438-12.476562-7.226563-16.75-23.257813-9.523437-35.734375l92.773437-160.207032c28.261719-48.800781 11.550782-111.5-37.253906-139.757812-48.804688-28.261719-111.5-11.550781-139.757812 37.253906l-11.738282 20.265625c-33.527344-16.652343-71.492187-20.519531-107.988281-10.792969-39.75 10.597657-72.996094 36.035157-93.609375 71.636719l-86.074219 148.636719c-20.617187 35.597656-26.132812 77.09375-15.539062 116.84375 10.59375 39.746094 36.035156 72.992188 71.632812 93.605469 23.773438 13.765625 50.171875 20.800781 76.925781 20.800781 13.3125 0 26.710938-1.742188 39.917969-5.261719 39.75-10.59375 72.992188-36.035156 93.605469-71.632812l63.917969-110.371094c.058593-.101563.105469-.210937.160156-.3125.0625-.105469.136719-.203125.199219-.308594l21.800781-37.648437c20.617187-35.597656 26.132813-77.09375 15.539063-116.84375-9.726563-36.496094-31.980469-67.5-63.113282-88.289063l11.738282-20.269531c22.710937-39.21875 73.097656-52.652344 112.320312-29.9375 19.003906 11 32.578125 28.746094 38.234375 49.960938 5.65625 21.214843 2.710937 43.363281-8.292969 62.363281l-92.773437 160.203125c-12.773438 22.058594-5.21875 50.398437 16.835937 63.171875 7.277344 4.214843 15.234375 6.214843 23.089844 6.214843 15.96875 0 31.523438-8.269531 40.082031-23.050781l23.144531-39.96875c2.78125-4.796875 1.144532-10.9375-3.65625-13.71875zm-222.433593-148.292969c2.394531-4.117187 7.308593-5.878906 11.671875-4.464843.066406.023437.128906.042969.191406.066406.242188.085937.476562.175781.710938.277344.273437.121093.539062.253906.800781.398437.066406.039063.136719.066406.203125.105469l.023437.011719c4.738281 2.75 6.359375 8.839844 3.617188 13.585937l-22.53125 38.902344c-1.332031 2.296875-3.476563 3.9375-6.042969 4.621094-2.566406.683593-5.25.324219-7.546875-1.003907-2.300781-1.332031-3.945313-3.480468-4.628906-6.050781-.6875-2.566406-.328125-5.25 1.003906-7.546875zm-139.886719-5.835937c17.925781-30.957031 46.835938-53.078125 81.402344-62.292969 31.3125-8.347656 63.875-5.195312 92.738281 8.800782l-20.132813 34.769531c-4.347656-.824219-8.859374-.671875-13.261718.503906-6.964844 1.855469-12.898438 6.066406-16.933594 11.945313-.007812.011718-.015625.023437-.027344.035156-.429687.628906-.84375 1.273437-1.230468 1.941406l-22.621094 39.058594c-6.523438 11.265625-4.851563 25.054687 3.15625 34.441406l-12.675782 21.890625-107.519531-61.554687zm145.722656 282.871094c-37.007812 63.90625-119.109375 85.789062-183.015625 48.78125-63.90625-37.007813-85.789062-119.105469-48.78125-183.011719l58.882813-101.683594 231.796875 134.230469zm99.585938-250.25c9.214844 34.566406 4.414062 70.652343-13.511719 101.609375l-16.773437 28.964844-107.207032-62.085938 12.640625-21.832031c1.8125.34375 3.652344.523437 5.5.523437 2.585938 0 5.191407-.335937 7.757813-1.019531 7.726562-2.0625 14.1875-7.003906 18.191406-13.921875l22.621094-39.058594c6.519531-11.261718 4.851562-25.046875-3.15625-34.441406l20.144531-34.792969c26.507813 18.070313 45.445313 44.742188 53.792969 76.054688zm0 0"/></svg>