<svg id="Capa_1" enable-background="new 0 0 512 512" height="512" viewBox="0 0 512 512" width="512" xmlns="http://www.w3.org/2000/svg"><path d="m256 127.742h-96.194l-61.649 49.319c-11.418 9.134-16.955 23.76-14.45 38.165l27.192 156.354h145.101z" fill="#5d5360"/><path d="m256 127.742h96.194l61.649 49.319c11.418 9.134 16.955 23.76 14.45 38.165l-27.192 156.354h-145.101z" fill="#6f6571"/><path d="m207.903 39.565h96.194v272.548h-96.194z" fill="#5d5360"/><path d="m304.097 39.565h-32.065v224.452c0 22.136-17.945 40.081-40.081 40.081-9.066 0-17.334-3.123-24.048-8.198v16.214h96.194z" fill="#4b3f4e"/><path d="m400.879 344.923-29.148-301.203c-1.988-20.545-19.254-36.22-39.894-36.22h-19.724c-8.854 0-16.032 7.178-16.032 16.032v240.484c0 22.136-17.945 40.081-40.081 40.081s-40.081-17.945-40.081-40.081v-240.484c0-8.855-7.178-16.032-16.032-16.032h-19.724c-20.641 0-37.906 15.675-39.894 36.22l-21.684 301.926c-8.276 85.529 51.486 158.854 137.415 158.854s153.157-74.048 144.879-159.577z" fill="#ff8086"/><path d="m256 151.79c-8.854 0-16.032-7.178-16.032-16.032v-40.081c0-8.854 7.178-16.032 16.032-16.032 8.854 0 16.032 7.178 16.032 16.032v40.081c0 8.854-7.178 16.032-16.032 16.032z" fill="#ffe07d"/><circle cx="256" cy="247.984" fill="#857e87" r="16.032"/><path d="m278.728 496.461c-85.418-1.482-150.151-78.216-141.922-163.25l31.326-323.703c-14.948 4.728-26.28 17.852-27.863 34.211l-29.149 301.204c-8.277 85.529 58.951 159.577 144.88 159.577 19.946 0 38.809-4.133 56.029-11.33-10.701 2.294-21.826 3.49-33.301 3.291z" fill="#e5646e"/><path d="m256 151.79c-8.854 0-16.032-7.178-16.032-16.032v-16.032h32.065v16.032c-.001 8.854-7.179 16.032-16.033 16.032z" fill="#ffd064"/><path d="m256 72.145c-12.976 0-23.532 10.557-23.532 23.532v40.081c0 12.976 10.557 23.532 23.532 23.532s23.532-10.557 23.532-23.532v-40.081c0-12.975-10.556-23.532-23.532-23.532zm8.532 63.613c0 4.705-3.828 8.532-8.532 8.532s-8.532-3.828-8.532-8.532v-40.081c0-4.705 3.828-8.532 8.532-8.532s8.532 3.828 8.532 8.532z"/><path d="m256 224.452c-12.976 0-23.532 10.557-23.532 23.532s10.557 23.532 23.532 23.532 23.532-10.557 23.532-23.532-10.556-23.532-23.532-23.532zm0 32.064c-4.705 0-8.532-3.828-8.532-8.532s3.828-8.532 8.532-8.532 8.532 3.828 8.532 8.532-3.827 8.532-8.532 8.532z"/><path d="m103.655 373.438c-.001-.013-.003-.026-.004-.04-.031-.122-.005.004.004.04z"/><path d="m419.357 171.277-30.181-25.151-9.98-103.129c-2.372-24.512-22.733-42.997-47.36-42.997h-19.724c-12.976 0-23.532 10.557-23.532 23.532v8.532h-65.161v-8.532c0-12.975-10.556-23.532-23.532-23.532h-19.724c-24.627 0-44.987 18.485-47.359 42.997l-9.98 103.129-30.181 25.15c-13.033 10.861-19.324 27.991-16.417 44.705l27.429 157.456c3.128 32.637 16.687 63.784 39.025 88.389 28.949 31.886 70.253 50.174 113.32 50.174s84.371-18.288 113.32-50.174c22.375-24.645 35.943-55.854 39.041-88.55l27.413-157.294c2.907-16.714-3.383-33.844-16.417-44.705zm-61.143 280.467c-26.111 28.76-63.367 45.256-102.214 45.256s-76.102-16.495-102.214-45.256-38.942-67.432-35.2-106.098l11.708-120.981c.399-4.123-2.62-7.789-6.743-8.188-4.13-.393-7.789 2.62-8.188 6.743l-8.099 83.687-16.26-93.495c-1.991-11.445 2.317-23.174 11.241-30.611l18.523-15.436-2.301 23.78c-.399 4.123 2.62 7.789 6.743 8.188 4.123.396 7.789-2.62 8.188-6.743l14.337-148.147c1.623-16.786 15.565-29.443 32.428-29.443h19.724c4.705 0 8.532 3.828 8.532 8.532v240.484c0 26.236 21.345 47.581 47.581 47.581s47.581-21.345 47.581-47.581v-168.339c0-4.142-3.358-7.5-7.5-7.5s-7.5 3.358-7.5 7.5v168.339c0 17.965-14.616 32.581-32.581 32.581s-32.581-14.616-32.581-32.581v-216.952h65.161v16.548c0 4.142 3.358 7.5 7.5 7.5s7.5-3.358 7.5-7.5v-40.08c0-4.705 3.828-8.532 8.532-8.532h19.724c16.863 0 30.805 12.657 32.429 29.442l29.148 301.204c3.743 38.665-9.086 77.336-35.199 106.098zm62.782-238.332-16.26 93.497-13.504-139.544 18.523 15.436c8.924 7.436 13.232 19.166 11.241 30.611z"/></svg>