<?xml version="1.0" encoding="iso-8859-1"?>
<!-- Generator: Adobe Illustrator 19.0.0, SVG Export Plug-In . SVG Version: 6.00 Build 0)  -->
<svg version="1.1" id="Capa_1" xmlns="http://www.w3.org/2000/svg" xmlns:xlink="http://www.w3.org/1999/xlink" x="0px" y="0px"
	 viewBox="0 0 490.667 490.667" style="enable-background:new 0 0 490.667 490.667;" xml:space="preserve">
<g>
	<g>
		<circle cx="245.333" cy="160" r="74.667"/>
	</g>
</g>
<g>
	<g>
		<circle cx="394.667" cy="224" r="53.333"/>
	</g>
</g>
<g>
	<g>
		<circle cx="97.515" cy="224" r="53.333"/>
	</g>
</g>
<g>
	<g>
		<path d="M245.333,256c-76.459,0-138.667,62.208-138.667,138.667c0,5.888,4.779,10.667,10.667,10.667h256
			c5.888,0,10.667-4.779,10.667-10.667C384,318.208,321.792,256,245.333,256z"/>
	</g>
</g>
<g>
	<g>
		<path d="M115.904,300.971c-6.528-1.387-13.163-2.304-19.904-2.304c-52.928,0-96,43.072-96,96c0,5.888,4.779,10.667,10.667,10.667
			h76.629c-1.195-3.349-1.963-6.912-1.963-10.667C85.333,359.659,96.768,327.339,115.904,300.971z"/>
	</g>
</g>
<g>
	<g>
		<path d="M394.667,298.667c-6.741,0-13.376,0.917-19.904,2.304c19.136,26.368,30.571,58.688,30.571,93.696
			c0,3.755-0.768,7.317-1.963,10.667H480c5.888,0,10.667-4.779,10.667-10.667C490.667,341.739,447.595,298.667,394.667,298.667z"/>
	</g>
</g>
<g>
</g>
<g>
</g>
<g>
</g>
<g>
</g>
<g>
</g>
<g>
</g>
<g>
</g>
<g>
</g>
<g>
</g>
<g>
</g>
<g>
</g>
<g>
</g>
<g>
</g>
<g>
</g>
<g>
</g>
</svg>
