<svg height="1065pt" viewBox="-72 -33 1065 1065.0001" width="1065pt" xmlns="http://www.w3.org/2000/svg"><path d="m687.714844 141.3125v338.332031h169.65625v-338.332031c0-46.585938-38.234375-84.828125-84.828125-84.828125-46.597657 0-84.828125 38.234375-84.828125 84.828125zm-417.242188 147.667969c-11.417968-11.417969-11.417968-29.9375 0-41.355469 11.425782-11.429688 29.945313-11.429688 41.375 0l16.027344 16.03125 51.789062-51.78125c-36.035156-27.875-87.191406-24.550781-119.378906 7.628906-35.359375 35.363282-35.359375 92.695313 0 128.0625 35.355469 35.359375 92.695313 35.359375 128.050782 0 22.050781-22.042968 31.566406-54.324218 23.9375-85.585937l-63.710938 63.722656c-11.429688 11.414063-29.949219 11.414063-41.367188 0zm150.757813-118.675781 36.726562-36.730469c11.417969-11.417969 29.941407-11.417969 41.363281 0 11.414063 11.425781 11.414063 29.945312 0 41.363281l-41.765624 41.757812c28.945312 57.578126 17.359374 127.023438-27.851563 172.226563-58.214844 58.21875-152.566406 58.21875-210.785156 0-58.203125-58.203125-58.203125-152.566406 0-210.777344 55.046875-55.046875 143.195312-58.488281 202.3125-7.839843zm-279.535157 611.605468c-16.160156 0-29.253906 13.097656-29.253906 29.253906 0 16.152344 13.09375 29.25 29.253906 29.25 16.152344 0 29.253907-13.097656 29.253907-29.25 0-16.15625-13.101563-29.253906-29.253907-29.253906zm117.003907 58.503906c-16.164063 0-29.25-13.097656-29.25-29.25 0-16.15625 13.085937-29.253906 29.25-29.253906h282.761719c16.152343 0 29.25 13.097656 29.25 29.253906 0 16.152344-13.097657 29.25-29.25 29.25zm-117.003907-175.503906c-16.160156 0-29.253906 13.089844-29.253906 29.25 0 16.152344 13.09375 29.25 29.253906 29.25 16.152344 0 29.253907-13.097656 29.253907-29.25 0-16.160156-13.101563-29.25-29.253907-29.25zm117.003907 58.5c-16.164063 0-29.25-13.097656-29.25-29.25 0-16.160156 13.085937-29.25 29.25-29.25h282.761719c16.152343 0 29.25 13.089844 29.25 29.25 0 16.152344-13.097657 29.25-29.25 29.25zm429.015625-185.261718v429.019531c0 16.15625-13.09375 29.25-29.25 29.25h-633.773438c-16.164062 0-29.25-13.09375-29.25-29.25v-828.78125c0-77.367188 63.027344-140.40625 140.40625-140.40625h636.695313c78.890625 0 143.332031 64.445312 143.332031 143.332031v367.582031c0 16.15625-13.097656 29.253907-29.253906 29.253907zm-30.554688-481.664063c-17.542968 23.777344-27.945312 53.140625-27.945312 84.828125v796.605469h-575.273438v-799.53125c0-45.070313 36.828125-81.902344 81.90625-81.902344zm-515.464844 491.417969c-16.160156 0-29.253906 13.097656-29.253906 29.25 0 16.15625 13.09375 29.253906 29.253906 29.253906 16.152344 0 29.253907-13.097656 29.253907-29.253906 0-16.152344-13.101563-29.25-29.253907-29.25zm117.003907 58.503906h282.761719c16.152343 0 29.25-13.097656 29.25-29.253906 0-16.152344-13.097657-29.25-29.25-29.25h-282.761719c-16.164063 0-29.25 13.097656-29.25 29.25 0 16.15625 13.085937 29.253906 29.25 29.253906zm0 0" fill-rule="evenodd"/></svg>