<svg height="512" viewBox="0 0 128 128" width="512" xmlns="http://www.w3.org/2000/svg" xmlns:xlink="http://www.w3.org/1999/xlink"><linearGradient id="a" gradientUnits="userSpaceOnUse" x1="99.042" x2="3.742" y1="109.432" y2="14.132"><stop offset="0" stop-color="#e8555f"/><stop offset="1" stop-color="#fdbd3f"/></linearGradient><path d="m24.517 70.177a1.75 1.75 0 0 1 1.247 2.137 33.033 33.033 0 0 0 1.7 22.286 5.239 5.239 0 0 0 .272.562c5.594 9.523 35 23.729 40.045 26.112 4.281-2.024 26.154-12.586 36.146-21.669a1.75 1.75 0 1 1 2.353 2.59c-11.452 10.405-36.702 22.105-37.771 22.605a1.747 1.747 0 0 1 -1.465 0c-1.454-.67-35.687-16.55-42.347-27.89a8.242 8.242 0 0 1 -.45-.918 36.448 36.448 0 0 1 -1.868-24.564 1.75 1.75 0 0 1 2.138-1.251zm84.449 26.754a1.75 1.75 0 0 0 2.316-.871c5.975-13.179 3.4-29.155-6.554-40.7-9.091-10.542-22.213-14.639-35.015-10.98-.227.053-.454.12-.649.182a4.532 4.532 0 0 1 -2.381.044c-.14-.039-.236-.063-.271-.072-.017 0-.034 0-.051-.007-.633-.191-1.27-.365-1.906-.516 1.968-8.105.738-18.265-.231-23.839a.265.265 0 0 1 .124-.283.28.28 0 0 1 .321-.022l5.553 3.133a.3.3 0 0 1 .111.1c1.7 3.605 1.769 8.985.2 15.557a1.75 1.75 0 1 0 3.4.813c1.781-7.459 1.633-13.468-.43-17.847a3.751 3.751 0 0 0 -1.57-1.676l-5.55-3.131a3.8 3.8 0 0 0 -5.661 3.274 45.46 45.46 0 0 0 -4.544-5.442 1.75 1.75 0 0 0 -2.5 2.45 42.156 42.156 0 0 1 6.675 8.963c-17.601-4.471-26.953-14.245-27.053-14.349a1.75 1.75 0 0 0 -2.554 2.388c.4.431 9.057 9.515 25.669 14.5-11.438 2.4-20.687 1.287-27.55-3.337-8.342-5.62-10.886-15.072-11.586-18.791 8.972-1.5 17.116-.743 24.226 2.263a1.749 1.749 0 1 0 1.363-3.222c-8.2-3.469-17.587-4.2-27.911-2.175a1.749 1.749 0 0 0 -1.406 1.87c.053.6 1.438 14.9 13.323 22.935 5.118 3.46 11.334 5.191 18.589 5.191a62.33 62.33 0 0 0 16.466-2.477 43.727 43.727 0 0 1 -.919 12.529c-11.228-1.534-22.1 2.7-30.044 11.8a1.75 1.75 0 0 0 2.637 2.3c7.477-8.57 17.806-12.372 28.368-10.422a29.135 29.135 0 0 1 3.531.851c.038.011.078.015.116.025.69.181 11.012 3.034 16.3 12.459 3.852 6.869 4.138 15.581.852 25.9a1.75 1.75 0 1 0 3.33 1.061c3.6-11.274 3.214-20.92-1.13-28.669a29.791 29.791 0 0 0 -12.012-11.491c10.768-2.185 21.5 1.618 29.118 10.45 9.07 10.516 11.432 25.027 6.019 36.968a1.75 1.75 0 0 0 .871 2.313zm-82.766-31.173a1.75 1.75 0 0 0 2.353-.767q.168-.33.343-.657a1.75 1.75 0 0 0 -3.09-1.645c-.126.238-.25.476-.372.716a1.749 1.749 0 0 0 .766 2.353zm21.574-53.609a1.75 1.75 0 1 0 1.969-2.894c-.336-.229-.679-.453-1.027-.675a1.75 1.75 0 1 0 -1.873 2.957c.317.2.627.405.931.612z" fill="url(#a)"/></svg>