<?xml version="1.0" encoding="iso-8859-1"?>
<!-- Generator: Adobe Illustrator 19.0.0, SVG Export Plug-In . SVG Version: 6.00 Build 0)  -->
<svg version="1.1" id="Capa_1" xmlns="http://www.w3.org/2000/svg" xmlns:xlink="http://www.w3.org/1999/xlink" x="0px" y="0px"
	 viewBox="0 0 512 512" style="enable-background:new 0 0 512 512;" xml:space="preserve">
<g>
	<g>
		<path d="M497,0H304.2h-96.399H15C6.716,0,0,6.716,0,15v482c0,8.284,6.716,15,15,15h482c8.284,0,15-6.716,15-15V15
			C512,6.716,505.284,0,497,0z M222.801,30H289.2v98.533h-66.399V30z M482,482H30V30h162.801v113.533c0,8.284,6.716,15,15,15H304.2
			c8.284,0,15-6.716,15-15V30H482V482z"/>
	</g>
</g>
<g>
	<g>
		<path d="M352.4,265.1H147.614l22.594-22.593c5.858-5.857,5.858-15.355,0-21.213c-5.856-5.858-15.354-5.858-21.213,0
			l-48.201,48.199c-2.813,2.813-4.394,6.628-4.394,10.606c0,3.978,1.58,7.793,4.394,10.606l48.199,48.2
			c2.929,2.93,6.768,4.393,10.606,4.393s7.678-1.465,10.607-4.393c5.858-5.858,5.858-15.355,0-21.213L147.613,295.1H352.4
			c18.306,0,33.199,14.894,33.199,33.2c0,18.306-14.894,33.2-33.199,33.2h-96.398c-8.284,0-15,6.716-15,15s6.716,15,15,15H352.4
			c34.849,0,63.199-28.352,63.199-63.2S387.248,265.1,352.4,265.1z"/>
	</g>
</g>
<g>
</g>
<g>
</g>
<g>
</g>
<g>
</g>
<g>
</g>
<g>
</g>
<g>
</g>
<g>
</g>
<g>
</g>
<g>
</g>
<g>
</g>
<g>
</g>
<g>
</g>
<g>
</g>
<g>
</g>
</svg>
