<svg id="Capa_1" enable-background="new 0 0 512 512" height="512" viewBox="0 0 512 512" width="512" xmlns="http://www.w3.org/2000/svg"><g><path d="m498.691 34.311h-485.381c-7.339 0-13.31 5.971-13.31 13.31v306.698c0 7.339 5.971 13.31 13.31 13.31h206.618c3.525 6.849 5.841 14.248 6.856 21.863h-74.459c-4.743 0-9.062 2.41-11.552 6.448l-26.099 42.317c-1.313 2.13-2.019 4.599-2.019 7.123v18.737c0 7.484 6.088 13.572 13.572 13.572h259.547c7.483 0 13.572-6.088 13.572-13.572v-18.737c0-2.535-.715-5.012-2.021-7.125l-26.098-42.314c-2.489-4.038-6.809-6.449-11.553-6.449h-74.459c1.015-7.614 3.331-15.013 6.856-21.863h134.126c4.143 0 7.5-3.358 7.5-7.5s-3.357-7.5-7.5-7.5h-411.197v-303.318h482v303.318h-35.802c-4.143 0-7.5 3.358-7.5 7.5s3.357 7.5 7.5 7.5h37.492c7.339 0 13.31-5.971 13.31-13.31v-306.699c0-7.339-5.971-13.309-13.309-13.309zm-120.283 401.847h-168.784c-4.142 0-7.5 3.358-7.5 7.5s3.358 7.5 7.5 7.5h174.722v11.531h-256.692v-11.531h46.969c4.142 0 7.5-3.358 7.5-7.5s-3.358-7.5-7.5-7.5h-41.032l19.53-31.666h74.251v10.239c0 4.891 3.293 9.215 8.007 10.516 13.545 3.737 27.803 3.707 41.239 0 4.715-1.3 8.008-5.625 8.008-10.516v-10.239h74.252zm-102.815-68.529c-3.925 9.732-5.966 20.167-5.966 30.732v13.175c-8.974 2.004-18.283 2.003-27.254 0v-13.175c0-10.565-2.041-21.001-5.965-30.732z"/><path d="m51.94 74.311c4.142 0 7.5-3.358 7.5-7.5s-3.358-7.5-7.5-7.5h-18.404c-4.707 0-8.536 3.829-8.536 8.536v266.246c0 4.707 3.829 8.536 8.536 8.536h444.928c4.707 0 8.536-3.829 8.536-8.536v-266.246c0-4.707-3.829-8.536-8.536-8.536h-391.524c-4.142 0-7.5 3.358-7.5 7.5s3.358 7.5 7.5 7.5h385.06v253.318h-432v-253.318z"/></g></svg>