<?xml version="1.0" encoding="iso-8859-1"?>
<!-- Generator: Adobe Illustrator 19.0.0, SVG Export Plug-In . SVG Version: 6.00 Build 0)  -->
<svg version="1.1" id="Capa_1" xmlns="http://www.w3.org/2000/svg" xmlns:xlink="http://www.w3.org/1999/xlink" x="0px" y="0px"
	 viewBox="0 0 512.002 512.002" style="enable-background:new 0 0 512.002 512.002;" xml:space="preserve">
<g>
	<g>
		<path d="M256.002,32.001c-141.152,0-256,100.48-256,224c0,50.624,19.328,99.2,54.816,138.24L3.874,453.569
			c-4.096,4.736-5.024,11.424-2.4,17.088c2.592,5.696,8.288,9.344,14.528,9.344h240c141.152,0,256-100.48,256-224
			S397.154,32.001,256.002,32.001z M256.002,448.001H50.85l37.76-44c5.536-6.432,5.088-16.032-0.992-21.92
			c-35.872-34.624-55.616-79.424-55.616-126.08c0-105.888,100.512-192,224-192s224,86.112,224,192S379.49,448.001,256.002,448.001z"
			/>
	</g>
</g>
<g>
</g>
<g>
</g>
<g>
</g>
<g>
</g>
<g>
</g>
<g>
</g>
<g>
</g>
<g>
</g>
<g>
</g>
<g>
</g>
<g>
</g>
<g>
</g>
<g>
</g>
<g>
</g>
<g>
</g>
</svg>
